<svg width="1000" height="1350" viewBox="0 0 1000 1350" fill="none" xmlns="http://www.w3.org/2000/svg">
<path fill-rule="evenodd" clip-rule="evenodd" d="M500 50C480.302 50 460.796 53.8799 442.597 61.4181C424.399 68.9563 407.863 80.0052 393.934 93.934C380.005 107.863 368.956 124.399 361.418 142.597C353.88 160.796 350 180.302 350 200V250H650V200C650 180.302 646.12 160.796 638.582 142.597C631.044 124.399 619.995 107.863 606.066 93.934C592.137 80.0052 575.601 68.9563 557.402 61.4181C539.204 53.8799 519.698 50 500 50ZM700 200V250H888.669C923.736 250 954.251 272.879 961.085 307.274C976.597 385.344 1000 545.326 1000 800C1000 953.443 991.505 1072.51 981.358 1160H22.3344C10.6446 1064.04 0 938.61 0 800C0 586.935 25.1513 405.007 40.5891 313.408C46.8511 276.253 79.2534 250 116.932 250H300V200C300 173.736 305.173 147.728 315.224 123.463C325.275 99.1982 340.007 77.1504 358.579 58.5787C377.15 40.0069 399.198 25.275 423.463 15.2241C447.728 5.17316 473.736 0 500 0C526.264 0 552.272 5.17315 576.537 15.2241C600.802 25.275 622.85 40.0069 641.421 58.5786C659.993 77.1504 674.725 99.1982 684.776 123.463C694.827 147.728 700 173.736 700 200ZM976.332 1200H27.4788C32.095 1234.07 36.6571 1263.26 40.5891 1286.59C46.8511 1323.75 79.2534 1350 116.933 1350H888.669C923.736 1350 954.251 1327.12 961.085 1292.73C965.739 1269.3 971.103 1238.51 976.332 1200ZM296 752C326.928 752 352 726.928 352 696C352 665.072 326.928 640 296 640C265.072 640 240 665.072 240 696C240 726.928 265.072 752 296 752ZM168 686C168 670.504 171.052 655.16 176.982 640.843C182.912 626.527 191.604 613.519 202.561 602.561C213.519 591.604 226.527 582.912 240.843 576.982C255.16 571.052 270.504 568 286 568V610.547C276.091 610.547 266.28 612.499 257.126 616.291C247.971 620.083 239.653 625.641 232.647 632.647C225.641 639.653 220.083 647.971 216.291 657.125C212.499 666.28 210.547 676.091 210.547 686H168ZM705 752C674.072 752 649 726.928 649 696C649 665.072 674.072 640 705 640C735.928 640 761 665.072 761 696C761 726.928 735.928 752 705 752ZM833 686C833 670.504 829.948 655.16 824.018 640.843C818.088 626.527 809.396 613.519 798.439 602.561C787.481 591.604 774.473 582.912 760.157 576.982C745.84 571.052 730.496 568 715 568V610.547C724.909 610.547 734.72 612.499 743.874 616.291C753.029 620.083 761.347 625.641 768.353 632.647C775.359 639.653 780.917 647.971 784.709 657.125C788.501 666.28 790.453 676.091 790.453 686H833ZM579.53 886.31C602.059 869.023 618.255 844.785 625.604 817.355L575.763 804C571.353 820.458 561.635 835.001 548.118 845.373C534.601 855.745 518.038 861.367 501 861.367C483.962 861.367 467.399 855.745 453.882 845.373C440.364 835.001 430.647 820.458 426.237 804L376.396 817.355C383.745 844.785 399.941 869.023 422.47 886.31C444.999 903.597 472.603 912.967 501 912.967C529.397 912.967 557.001 903.597 579.53 886.31Z" fill="#666666"/>
</svg>
